<svg width="73" height="73" viewBox="0 0 73 73" fill="none" xmlns="http://www.w3.org/2000/svg">
<path d="M69.4017 43.6604C70.5452 42.5368 71.4526 41.196 72.0705 39.7167C72.6884 38.2374 73.0045 36.6496 73 35.0464C72.9997 32.8729 72.3995 30.7417 71.2655 28.8874C70.1315 27.0332 68.5077 25.5279 66.573 24.5375C65.1532 17.6095 61.385 11.3841 55.9053 6.91354C50.4256 2.44296 43.5705 0.00134277 36.4985 0.00134277C29.4265 0.00134277 22.5714 2.44296 17.0917 6.91354C11.612 11.3841 7.84381 17.6095 6.424 24.5375C4.49006 25.5286 2.86707 27.0341 1.73365 28.8883C0.600235 30.7424 0.000342011 32.8733 0 35.0464C0.00356607 37.8893 1.0043 40.6409 2.82789 42.8219C4.65148 45.0029 7.18236 46.475 9.97971 46.9819C11.0496 49.0604 12.3682 51.001 13.9065 52.7611C10.1203 56.9388 7.57991 62.0935 6.57304 67.6409C6.46742 68.2309 6.47908 68.8359 6.60736 69.4214C6.73564 70.0069 6.97802 70.5614 7.32065 71.0531C7.66328 71.5449 8.09945 71.9644 8.60424 72.2875C9.10903 72.6107 9.67254 72.8312 10.2626 72.9365C10.53 72.9803 10.8007 73.0016 11.0717 73.0004C12.1411 72.9985 13.1759 72.6211 13.9954 71.9339C14.8148 71.2468 15.3669 70.2936 15.5551 69.2409C16.2647 65.3421 18.0566 61.7216 20.7259 58.7927C25.3813 61.9778 30.8609 63.7434 36.5 63.8754C42.1433 63.7458 47.6275 61.9801 52.2863 58.7927C54.9556 61.7216 56.7474 65.3421 57.4571 69.2409C57.6449 70.2915 58.1952 71.2431 59.0121 71.93C59.8291 72.6169 60.861 72.9957 61.9283 73.0004C62.1995 72.9996 62.4702 72.9762 62.7374 72.9304C63.3275 72.8251 63.891 72.6046 64.3958 72.2814C64.9006 71.9583 65.3367 71.5388 65.6794 71.0471C66.022 70.5553 66.2644 70.0008 66.3927 69.4153C66.5209 68.8299 66.5326 68.2248 66.427 67.6349C65.4201 62.0874 62.8797 56.9328 59.0935 52.755C60.6324 50.9953 61.951 49.0546 63.0203 46.9759C65.4355 46.5467 67.662 45.3899 69.4017 43.6604ZM60.8333 38.0455H60.7999H60.3071C59.302 37.9707 58.3 38.2277 57.4549 38.7771C56.6099 39.3266 55.9685 40.1381 55.6291 41.0872C54.076 44.9521 51.4498 48.2921 48.0604 50.713C44.6709 53.134 40.6597 54.5349 36.5 54.7504C32.3355 54.5351 28.3197 53.1316 24.9276 50.706C21.5355 48.2804 18.909 44.9341 17.3588 41.0629C17.0445 40.1739 16.4625 39.4042 15.6929 38.8595C14.9233 38.3148 14.0038 38.0219 13.0609 38.0212C12.9332 38.0212 12.8085 38.0212 12.6807 38.0364H12.1697H12.1363C11.3408 38.038 10.5772 37.7242 10.0127 37.1637C9.44825 36.6033 9.12903 35.8419 9.125 35.0464C9.1271 34.4177 9.34947 33.8095 9.75347 33.3278C10.1575 32.846 10.7175 32.521 11.3363 32.4093C12.3057 32.2321 13.1917 31.7458 13.8617 31.0232C14.5317 30.3006 14.9497 29.3804 15.0532 28.4004C15.6433 22.7568 18.444 17.5764 22.8429 13.992C22.9004 16.6708 23.7439 19.2736 25.2686 21.4769C26.7932 23.6802 28.9318 25.3868 31.4184 26.3847C33.9051 27.3825 36.6302 27.6275 39.2549 27.0893C41.8797 26.5511 44.2884 25.2533 46.1816 23.3573C46.6242 22.9377 46.9781 22.4337 47.2225 21.875C47.4669 21.3163 47.5968 20.7142 47.6046 20.1045C47.6123 19.4947 47.4977 18.8895 47.2676 18.3248C47.0375 17.7601 46.6965 17.2472 46.2648 16.8165C45.8331 16.3858 45.3194 16.046 44.7541 15.8172C44.1888 15.5884 43.5834 15.4753 42.9737 15.4845C42.3639 15.4937 41.7622 15.625 41.2041 15.8707C40.6459 16.1164 40.1427 16.4715 39.7242 16.9151C38.8554 17.7452 37.7001 18.2085 36.4985 18.2085C35.2969 18.2085 34.1415 17.7452 33.2728 16.9151C32.6343 16.277 32.1994 15.4638 32.0232 14.5785C31.847 13.6932 31.9374 12.7755 32.2829 11.9416C32.6283 11.1076 33.2135 10.3949 33.9641 9.89362C34.7148 9.39231 35.5973 9.12495 36.5 9.12535C41.8263 9.11247 46.9679 11.0767 50.9289 14.6376C54.8899 18.1986 57.3885 23.1028 57.9407 28.4004C58.0446 29.3813 58.4635 30.302 59.1347 31.0248C59.8059 31.7475 60.6932 32.2333 61.6637 32.4093C62.2825 32.521 62.8425 32.846 63.2465 33.3278C63.6505 33.8095 63.8729 34.4177 63.875 35.0464C63.8759 35.4425 63.7978 35.8349 63.6453 36.2004C63.4928 36.566 63.2689 36.8975 62.9868 37.1756C62.7032 37.4557 62.3668 37.6768 61.9971 37.8261C61.6275 37.9754 61.232 38.05 60.8333 38.0455Z" fill="#133E87"/>
</svg>
