<svg width="67" height="73" viewBox="0 0 67 73" fill="none" xmlns="http://www.w3.org/2000/svg">
<path d="M47.4208 13.4259C46.2789 12.2851 45.6374 10.7381 45.6374 9.125C45.6374 7.51192 46.2789 5.96488 47.4208 4.82408L51.727 0L56.0364 4.82408C56.6181 5.38525 57.0821 6.05652 57.4013 6.79871C57.7206 7.5409 57.8886 8.33915 57.8956 9.14689C57.9026 9.95463 57.7485 10.7557 57.4423 11.5033C57.136 12.2509 56.6838 12.9301 56.1119 13.5013C55.54 14.0725 54.8599 14.5242 54.1114 14.8301C53.3628 15.136 52.5608 15.2899 51.752 15.2829C50.9433 15.2758 50.144 15.108 49.4009 14.7892C48.6578 14.4704 47.9857 14.0069 47.4238 13.4259H47.4208ZM33.5 15.2083C34.7045 15.2081 35.8818 14.8512 36.8832 14.1827C37.8847 13.5142 38.6651 12.5642 39.126 11.4528C39.5869 10.3414 39.7076 9.11844 39.4726 7.93856C39.2377 6.75868 38.6578 5.67485 37.8063 4.82408L33.5 0L29.1937 4.82408C28.3422 5.67485 27.7623 6.75868 27.5274 7.93856C27.2924 9.11844 27.4131 10.3414 27.874 11.4528C28.3349 12.5642 29.1153 13.5142 30.1168 14.1827C31.1182 14.8512 32.2955 15.2081 33.5 15.2083ZM15.1816 15.2083C16.3863 15.2087 17.5641 14.8522 18.566 14.184C19.5679 13.5157 20.3488 12.5658 20.8101 11.4542C21.2714 10.3427 21.3922 9.11947 21.1574 7.9393C20.9226 6.75914 20.3427 5.67503 19.4909 4.82408L15.1816 0L10.8753 4.82408C10.0238 5.67485 9.44386 6.75868 9.20895 7.93856C8.97403 9.11844 9.09465 10.3414 9.55555 11.4528C10.0165 12.5642 10.7969 13.5142 11.7983 14.1827C12.7997 14.8512 13.9771 15.2081 15.1816 15.2083ZM67 55.5621V66.9167H60.9091V73H45.6818V66.9167H21.3182V73H6.09091V66.9167H0V55.5621C0.00794523 49.8382 1.30154 44.189 3.7855 39.0307L9.44091 27.3111C10.3178 25.5101 11.6832 23.9911 13.3819 22.9269C15.0805 21.8627 17.0442 21.2962 19.0493 21.2917H47.9507C49.9558 21.2962 51.9195 21.8627 53.6181 22.9269C55.3168 23.9911 56.6822 25.5101 57.5591 27.3111L63.2267 39.0307C65.7064 44.19 66.9959 49.8391 67 55.5621ZM13.7045 48.6667C12.493 48.6667 11.3311 49.1474 10.4744 50.003C9.61765 50.8586 9.13636 52.0191 9.13636 53.2292C9.13636 54.4392 9.61765 55.5997 10.4744 56.4553C11.3311 57.311 12.493 57.7917 13.7045 57.7917C14.9161 57.7917 16.078 57.311 16.9347 56.4553C17.7914 55.5997 18.2727 54.4392 18.2727 53.2292C18.2727 52.0191 17.7914 50.8586 16.9347 50.003C16.078 49.1474 14.9161 48.6667 13.7045 48.6667ZM53.3168 39.5417L49.3364 31.2775C49.2121 31.0198 49.0176 30.8024 48.7752 30.6501C48.5328 30.4978 48.2523 30.4169 47.9659 30.4167H19.0493C18.763 30.4169 18.4825 30.4978 18.2401 30.6501C17.9977 30.8024 17.8031 31.0198 17.6789 31.2775L13.6832 39.5417H53.3168ZM53.2955 48.6667C52.0839 48.6667 50.922 49.1474 50.0653 50.003C49.2086 50.8586 48.7273 52.0191 48.7273 53.2292C48.7273 54.4392 49.2086 55.5997 50.0653 56.4553C50.922 57.311 52.0839 57.7917 53.2955 57.7917C54.507 57.7917 55.6689 57.311 56.5256 56.4553C57.3823 55.5997 57.8636 54.4392 57.8636 53.2292C57.8636 52.0191 57.3823 50.8586 56.5256 50.003C55.6689 49.1474 54.507 48.6667 53.2955 48.6667Z" fill="#133E87"/>
</svg>
