<svg width="73" height="73" viewBox="0 0 73 73" fill="none" xmlns="http://www.w3.org/2000/svg">
<path d="M72.5745 15.4111C71.735 12.5346 70.1625 9.92512 68.0109 7.83786C65.8594 5.7506 63.2023 4.25708 60.2997 3.50341C56.479 2.6008 52.4667 2.98798 48.8896 4.60445C45.4876 1.56912 41.0657 -0.0740032 36.5052 0.00257474C31.9433 -0.0742382 27.52 1.57008 24.1179 4.6075C20.6419 3.0367 16.7517 2.62713 13.0243 3.43954C10.6219 3.87691 8.3531 4.86257 6.39456 6.31971C4.43603 7.77685 2.8407 9.66613 1.73288 11.8403C0.453625 14.4476 -0.134195 17.3393 0.0257193 20.2386C0.185634 23.1378 1.08793 25.9475 2.64618 28.3986C4.80207 31.9492 8.18209 34.5906 12.1506 35.8261V59.313C12.1554 62.9415 13.6003 66.4201 16.1684 68.9858C18.7365 71.5516 22.2182 72.9952 25.8501 73H47.1604C48.9594 73 50.7409 72.646 52.403 71.9581C54.0651 71.2703 55.5753 70.2621 56.8474 68.9912C58.1195 67.7202 59.1286 66.2114 59.8171 64.5508C60.5055 62.8902 60.8599 61.1104 60.8599 59.313V35.7318C64.2205 34.6203 67.1699 32.5266 69.3262 29.7217C70.9056 27.7315 72.0174 25.4124 72.5796 22.9355C73.1419 20.4587 73.1401 17.8872 72.5745 15.4111ZM62.0959 24.1465C61.41 25.0852 60.5254 25.8613 59.5052 26.4196C58.4849 26.9779 57.354 27.3047 56.1929 27.3766C54.9993 27.4029 53.8634 27.8951 53.0287 28.7479C52.1939 29.6006 51.7266 30.7461 51.7269 31.9389V54.7506H21.2836V31.9389C21.2836 30.7289 20.8025 29.5685 19.9461 28.7129C19.0897 27.8573 17.9282 27.3766 16.7171 27.3766C15.4285 27.3268 14.1732 26.9532 13.0675 26.2902C11.9617 25.6273 11.0412 24.6964 10.391 23.5838C9.65811 22.4482 9.2298 21.1434 9.14716 19.7948C9.06453 18.4462 9.33035 17.099 9.91909 15.8826C10.409 14.9588 11.1076 14.1618 11.9594 13.5547C12.8112 12.9475 13.7929 12.547 14.8266 12.3848C15.992 12.0591 17.2193 12.0216 18.4025 12.2754C19.5858 12.5292 20.6895 13.0667 21.6185 13.8417C22.0924 14.3247 22.6679 14.6965 23.3033 14.93C23.9387 15.1635 24.6181 15.2529 25.2924 15.1918C25.9667 15.1306 26.6189 14.9205 27.2018 14.5765C27.7848 14.2325 28.2839 13.7634 28.663 13.2029C29.5055 11.9037 30.671 10.8451 32.0456 10.1307C33.4202 9.41634 34.9568 9.07057 36.5052 9.12725C38.0536 9.07057 39.5903 9.41634 40.9649 10.1307C42.3395 10.8451 43.505 11.9037 44.3474 13.2029C44.7266 13.7634 45.2257 14.2325 45.8086 14.5765C46.3916 14.9205 47.0438 15.1306 47.7181 15.1918C48.3923 15.2529 49.0718 15.1635 49.7072 14.93C50.3426 14.6965 50.9181 14.3247 51.392 13.8417C52.351 13.0611 53.485 12.5241 54.6969 12.2768C55.9089 12.0294 57.1628 12.079 58.3514 12.4213C59.5689 12.8157 60.6816 13.4798 61.6062 14.3641C62.5308 15.2484 63.2435 16.33 63.6911 17.528C63.9371 18.6802 63.9214 19.8728 63.6454 21.0181C63.3693 22.1635 62.8398 23.2325 62.0959 24.1465Z" fill="#133E87"/>
</svg>
