<svg width="42" height="39" viewBox="0 0 42 39" fill="none" xmlns="http://www.w3.org/2000/svg">
<path d="M34.013 11.9107L42 3.92018L38.2918 0.208435L30.2575 8.24269L27.195 5.25019C26.4207 4.4954 25.3906 4.0599 24.3098 4.03039C23.2289 4.00088 22.1765 4.37952 21.3622 5.09093C18.3653 7.81081 14.8787 9.93628 11.088 11.3542L0 14.6057V16.5657C0.0669578 22.5187 2.49268 28.202 6.74493 32.3686C10.9972 36.5352 16.7286 38.8448 22.6818 38.7907H25.0495L25.7267 38.3182C29.2557 36.0531 32.1826 32.9661 34.2568 29.3217C36.3309 25.6773 37.4903 21.5842 37.6355 17.3934C37.6523 16.7967 37.5453 16.203 37.3212 15.6497C37.0971 15.0964 36.7608 14.5955 36.3335 14.1787L34.013 11.9107ZM23.38 33.5407H22.68C21.0313 33.5414 19.3905 33.3135 17.8045 32.8634C20.0701 31.4097 22.0227 29.5183 23.548 27.3002L24.4125 26.0279L20.0725 23.0757L19.2098 24.3444C17.7756 26.4378 15.8346 28.1338 13.5677 29.2742L12.075 30.0232C11.0102 29.2232 10.0413 28.3031 9.1875 27.2809C11.5552 26.2954 13.7149 24.8703 15.5522 23.0809L11.8773 19.3324C10.3308 20.8331 8.48103 21.9853 6.45225 22.7117C5.90679 21.3616 5.54254 19.9452 5.369 18.4994L12.565 16.3907C15.253 15.5014 17.799 14.2302 20.125 12.6159L31.1955 23.3907C29.6623 27.4785 26.9403 31.0137 23.38 33.5407Z" fill="#133E87"/>
</svg>
