<svg width="73" height="73" viewBox="0 0 73 73" fill="none" xmlns="http://www.w3.org/2000/svg">
<path d="M42.5816 6.08333H48.6646V15.2083H42.5816V31.9375H48.6646V41.0625H42.5816V57.7917H48.6646V66.9167H42.5816C37.5508 66.9167 33.4569 62.8226 33.4569 57.7917V15.2083C33.4569 10.1774 37.5508 6.08333 42.5816 6.08333ZM13.6869 15.2083C17.8873 15.2083 21.2908 11.8047 21.2908 7.60417C21.2908 3.40363 17.8873 0 13.6869 0C9.48656 0 6.08308 3.40363 6.08308 7.60417C6.08308 11.8047 9.48656 15.2083 13.6869 15.2083ZM27.3739 27.375V54.75H21.2908V73H6.08308V54.75H0V27.375C0 22.3441 4.09391 18.25 9.12462 18.25H18.2492C23.2799 18.25 27.3739 22.3441 27.3739 27.375ZM9.12462 45.625H18.2492V27.375H9.12462V45.625ZM65.0494 15.6555C63.6533 17.0972 61.3387 17.0881 59.9579 15.6342L54.9363 10.2626L59.1549 5.87954L62.531 9.51433L70.582 1.25925C69.56 0.480583 68.2978 0 66.9169 0H57.7923C54.4314 0 51.7092 2.72229 51.7092 6.08333V15.2083C51.7092 18.5694 54.4314 21.2917 57.7923 21.2917H66.9169C70.2778 21.2917 73 18.5694 73 15.2083V7.44904L65.0525 15.6555H65.0494ZM59.9579 41.4883L54.9363 36.1167L59.1549 31.7337L62.531 35.3685L70.582 27.1134C69.56 26.3347 68.2978 25.8542 66.9169 25.8542H57.7923C54.4314 25.8542 51.7092 28.5765 51.7092 31.9375V41.0625C51.7092 44.4235 54.4314 47.1458 57.7923 47.1458H66.9169C70.2778 47.1458 73 44.4235 73 41.0625V33.3032L65.0525 41.5096C63.6564 42.9514 61.3418 42.9423 59.9609 41.4883H59.9579ZM59.9579 67.3425L54.9363 61.9709L59.1549 57.5879L62.531 61.2227L70.582 52.9676C69.56 52.1889 68.2978 51.7083 66.9169 51.7083H57.7923C54.4314 51.7083 51.7092 54.4306 51.7092 57.7917V66.9167C51.7092 70.2777 54.4314 73 57.7923 73H66.9169C70.2778 73 73 70.2777 73 66.9167V59.1574L65.0525 67.3638C63.6564 68.8055 61.3418 68.7964 59.9609 67.3425H59.9579Z" fill="#133E87"/>
</svg>
